<svg xmlns="http://www.w3.org/2000/svg" xmlns:xlink="http://www.w3.org/1999/xlink" viewBox="0 0 2223.37 1300"><defs><style>.cls-1{fill:url(#linear-gradient);}.cls-2{fill:#e6e7e8;}.cls-3{fill:none;}.cls-4{fill:#e6e6e6;}</style><linearGradient id="linear-gradient" x1="1138.15" y1="650" x2="2223.37" y2="650" gradientUnits="userSpaceOnUse"><stop offset="0" stop-color="#2e3192"/><stop offset="0.98" stop-color="#1b75bc"/></linearGradient></defs><title>Asset 18backgroundhome</title><g id="Layer_2" data-name="Layer 2"><g id="Layer_1-2" data-name="Layer 1"><rect class="cls-1" x="1138.15" width="1085.22" height="1300"/><rect class="cls-2" width="1138.15" height="1300"/><path class="cls-3" d="M1387.41,795.34a10.82,10.82,0,0,0-3.63-2.45,11.54,11.54,0,0,0-4.45-.88,11.8,11.8,0,0,0-4.56.88,10.82,10.82,0,0,0-3.63,2.45,12.23,12.23,0,0,0-2.4,3.58,10.68,10.68,0,0,0-.88,4.36,11.69,11.69,0,0,0,3.28,8.23,10.68,10.68,0,0,0,3.63,2.45,11.62,11.62,0,0,0,4.56.89,11.37,11.37,0,0,0,4.45-.89,10.68,10.68,0,0,0,3.63-2.45,12.63,12.63,0,0,0,2.45-3.62,10.57,10.57,0,0,0,.93-4.41,10.9,10.9,0,0,0-.93-4.46A12.53,12.53,0,0,0,1387.41,795.34Z"/><path class="cls-3" d="M842.34,795.34a10.88,10.88,0,0,0-3.62-2.45,11.59,11.59,0,0,0-4.46-.88,11.8,11.8,0,0,0-4.56.88,10.92,10.92,0,0,0-3.63,2.45,12.23,12.23,0,0,0-2.4,3.58,10.68,10.68,0,0,0-.88,4.36,11.69,11.69,0,0,0,3.28,8.23A10.78,10.78,0,0,0,829.7,814a11.62,11.62,0,0,0,4.56.89,11.42,11.42,0,0,0,4.46-.89,10.73,10.73,0,0,0,3.62-2.45,12.63,12.63,0,0,0,2.45-3.62,10.57,10.57,0,0,0,.93-4.41,10.9,10.9,0,0,0-.93-4.46A12.53,12.53,0,0,0,842.34,795.34Z"/><path class="cls-3" d="M1287.79,790.15a11.26,11.26,0,0,0-13.37-.1,9.79,9.79,0,0,0-3.29,6.08h20.29A10.69,10.69,0,0,0,1287.79,790.15Z"/><path class="cls-3" d="M1117,576.31a10.68,10.68,0,0,0,3.63,2.45,11.61,11.61,0,0,0,4.55.89,11.38,11.38,0,0,0,4.46-.89,10.68,10.68,0,0,0,3.63-2.45,12.63,12.63,0,0,0,2.45-3.62,10.57,10.57,0,0,0,.93-4.41,10.9,10.9,0,0,0-.93-4.46,12.53,12.53,0,0,0-2.45-3.68,10.82,10.82,0,0,0-3.63-2.45,11.56,11.56,0,0,0-4.46-.88,11.79,11.79,0,0,0-4.55.88,10.82,10.82,0,0,0-3.63,2.45,12.23,12.23,0,0,0-2.4,3.58,10.68,10.68,0,0,0-.88,4.36,11.69,11.69,0,0,0,3.28,8.23Z"/><path class="cls-3" d="M1440.18,555a11.26,11.26,0,0,0-13.37-.1,9.74,9.74,0,0,0-3.29,6.08h20.29A10.69,10.69,0,0,0,1440.18,555Z"/><path class="cls-3" d="M980.91,795.34a10.88,10.88,0,0,0-3.62-2.45,11.63,11.63,0,0,0-4.46-.88,11.8,11.8,0,0,0-4.56.88,10.92,10.92,0,0,0-3.63,2.45,12.23,12.23,0,0,0-2.4,3.58,10.68,10.68,0,0,0-.88,4.36,11.69,11.69,0,0,0,3.28,8.23,10.78,10.78,0,0,0,3.63,2.45,11.62,11.62,0,0,0,4.56.89,11.45,11.45,0,0,0,4.46-.89,10.73,10.73,0,0,0,3.62-2.45,12.63,12.63,0,0,0,2.45-3.62,10.57,10.57,0,0,0,.93-4.41,10.9,10.9,0,0,0-.93-4.46A12.53,12.53,0,0,0,980.91,795.34Z"/><path class="cls-3" d="M1075.38,696.36a10.68,10.68,0,0,0,3.63-2.45,12.63,12.63,0,0,0,2.45-3.62,10.6,10.6,0,0,0,.93-4.41,10.9,10.9,0,0,0-.93-4.46,12.53,12.53,0,0,0-2.45-3.68,10.82,10.82,0,0,0-3.63-2.45,11.37,11.37,0,0,0-4.46-.88,11.61,11.61,0,0,0-4.55.88,10.82,10.82,0,0,0-3.63,2.45,12.23,12.23,0,0,0-2.4,3.58,10.68,10.68,0,0,0-.88,4.36,11.69,11.69,0,0,0,3.28,8.23,10.68,10.68,0,0,0,3.63,2.45,11.61,11.61,0,0,0,4.55.88A11.37,11.37,0,0,0,1075.38,696.36Z"/><path class="cls-3" d="M1028.05,578.76a10.73,10.73,0,0,0,3.62-2.45,12.29,12.29,0,0,0,2.45-3.67,11,11,0,0,0,.94-4.56,10.78,10.78,0,0,0-.94-4.46,12.29,12.29,0,0,0-2.45-3.67,10.59,10.59,0,0,0-3.62-2.45,11.62,11.62,0,0,0-8.92,0,10.73,10.73,0,0,0-3.63,2.45,12.63,12.63,0,0,0-2.45,3.62,10.6,10.6,0,0,0-.93,4.41,11.44,11.44,0,0,0,.93,4.66,12.48,12.48,0,0,0,2.45,3.67,10.88,10.88,0,0,0,3.63,2.45,11.62,11.62,0,0,0,8.92,0Z"/><path class="cls-3" d="M1093,790.15a11.27,11.27,0,0,0-13.38-.1,9.78,9.78,0,0,0-3.28,6.08h20.29A10.69,10.69,0,0,0,1093,790.15Z"/><path class="cls-3" d="M1525.1,795.15a10.63,10.63,0,0,0-3.63-2.45,11.74,11.74,0,0,0-8.92,0,10.59,10.59,0,0,0-3.62,2.45,12.63,12.63,0,0,0-2.45,3.62,10.6,10.6,0,0,0-.93,4.41,11.44,11.44,0,0,0,.93,4.66,12.48,12.48,0,0,0,2.45,3.67,10.73,10.73,0,0,0,3.62,2.45,11.62,11.62,0,0,0,8.92,0,10.78,10.78,0,0,0,3.63-2.45,12.48,12.48,0,0,0,2.45-3.67,11.2,11.2,0,0,0,.93-4.56,10.94,10.94,0,0,0-.93-4.46A12.48,12.48,0,0,0,1525.1,795.15Z"/><path class="cls-3" d="M1215.23,681.42a12.72,12.72,0,0,0-2.45-3.68,11,11,0,0,0-3.63-2.45,11.74,11.74,0,0,0-8.92,0,10.88,10.88,0,0,0-3.62,2.45,12.79,12.79,0,0,0-2.45,3.58,10.24,10.24,0,0,0-.93,4.36,11.69,11.69,0,0,0,3.28,8.23,10.73,10.73,0,0,0,3.62,2.45,11.69,11.69,0,0,0,4.56.88,11.37,11.37,0,0,0,4.46-.88,10.88,10.88,0,0,0,3.63-2.45,12.84,12.84,0,0,0,2.45-3.62,10.6,10.6,0,0,0,.93-4.41A10.9,10.9,0,0,0,1215.23,681.42Z"/><path class="cls-3" d="M1245.36,555a11.27,11.27,0,0,0-13.38-.1,9.78,9.78,0,0,0-3.28,6.08H1249A10.69,10.69,0,0,0,1245.36,555Z"/><path class="cls-3" d="M1456.84,795.44a12.2,12.2,0,0,0-3.62-2.5,10.87,10.87,0,0,0-4.51-.93,11.2,11.2,0,0,0-4.41.88,11,11,0,0,0-3.58,2.45,12.53,12.53,0,0,0-2.45,3.68,10.9,10.9,0,0,0-.93,4.46,11,11,0,0,0,3.33,8,12.33,12.33,0,0,0,3.68,2.45,10.75,10.75,0,0,0,4.46.94,11.1,11.1,0,0,0,4.41-.89,10.83,10.83,0,0,0,3.57-2.45,12.43,12.43,0,0,0,2.45-3.62,10.36,10.36,0,0,0,.93-4.32,11.36,11.36,0,0,0-.88-4.45A11.14,11.14,0,0,0,1456.84,795.44Z"/><polygon points="891.39 567.2 875.71 519.47 860.42 519.47 844.74 567.2 832 519.47 811.91 519.47 833.96 593.37 853.56 593.37 868.07 550.54 882.57 593.37 902.17 593.37 924.22 519.47 904.13 519.47 891.39 567.2"/><path d="M948,566.51q0-5,2.4-7.69a8.78,8.78,0,0,1,6.91-2.7,8.37,8.37,0,0,1,5.69,2.06,7.21,7.21,0,0,1,2,3.63,26.4,26.4,0,0,1,.59,6.17v25.38h17.73V561.42q0-8.92-4.85-14.16T964.11,542a23.09,23.09,0,0,0-8.73,1.52,19.53,19.53,0,0,0-7.35,5.93V512H930.3v81.33H948Z"/><path d="M1035.5,593.27a28.34,28.34,0,0,0,9.65-5.54,25.51,25.51,0,0,0,8.62-19.45,26.09,26.09,0,0,0-2.25-10.93,25.1,25.1,0,0,0-6.32-8.53,29.72,29.72,0,0,0-9.61-5.58,34.9,34.9,0,0,0-12-2,34.27,34.27,0,0,0-12.1,2.06,29.81,29.81,0,0,0-9.56,5.63,25.68,25.68,0,0,0-6.27,8.43,24.48,24.48,0,0,0-2.25,10.44A27.29,27.29,0,0,0,995.66,579a26,26,0,0,0,6.22,8.67,27.65,27.65,0,0,0,9.46,5.59,35.47,35.47,0,0,0,12,2A37.11,37.11,0,0,0,1035.5,593.27Zm-20-17a12.48,12.48,0,0,1-2.45-3.67,11.44,11.44,0,0,1-.93-4.66,10.6,10.6,0,0,1,.93-4.41,12.63,12.63,0,0,1,2.45-3.62,10.73,10.73,0,0,1,3.63-2.45,11.62,11.62,0,0,1,8.92,0,10.59,10.59,0,0,1,3.62,2.45,12.29,12.29,0,0,1,2.45,3.67,10.78,10.78,0,0,1,.94,4.46,11,11,0,0,1-.94,4.56,12.29,12.29,0,0,1-2.45,3.67,10.73,10.73,0,0,1-3.62,2.45,11.62,11.62,0,0,1-8.92,0A10.88,10.88,0,0,1,1015.5,576.31Z"/><path class="cls-4" d="M1183.72,571.81q0-7.06,3.09-10.74t9.26-3.67a16.92,16.92,0,0,1,7.64,1.76V542.21a10.89,10.89,0,0,0-1.91-.2h-1.52a18.69,18.69,0,0,0-9.6,2.4,20.42,20.42,0,0,0-7,6.91v-8.23H1166v50.27h17.74Z"/><path class="cls-4" d="M1218.17,587.88a26.07,26.07,0,0,0,9.06,5.44,34.2,34.2,0,0,0,11.66,1.91q20.77,0,26-17.25h-17.15a9.64,9.64,0,0,1-8.72,4.7q-10.79,0-10.78-11.46h37.34v-1.86a35.14,35.14,0,0,0-1.86-11.81,24.11,24.11,0,0,0-5.39-8.87,23.2,23.2,0,0,0-8.63-5.54,32.56,32.56,0,0,0-11.46-1.91,33.28,33.28,0,0,0-11.62,1.91,24.74,24.74,0,0,0-8.77,5.44,23.67,23.67,0,0,0-5.58,8.57,31,31,0,0,0-2,11.32,28.12,28.12,0,0,0,2,11A24.27,24.27,0,0,0,1218.17,587.88Zm13.81-33a11.27,11.27,0,0,1,13.38.1,10.69,10.69,0,0,1,3.63,6H1228.7A9.78,9.78,0,0,1,1232,554.85Z"/><polygon class="cls-4" points="1365.21 593.37 1377.07 593.37 1403.34 543.09 1383.64 543.09 1370.99 570.34 1358.45 543.09 1347.28 543.09 1334.73 569.55 1322.68 543.09 1302.88 543.09 1328.66 593.37 1340.71 593.37 1352.67 565.83 1365.21 593.37"/><path class="cls-4" d="M1433.72,595.23q20.77,0,26-17.25h-17.15a9.65,9.65,0,0,1-8.73,4.7q-10.77,0-10.78-11.46h37.34v-1.86a35.14,35.14,0,0,0-1.86-11.81,24,24,0,0,0-5.39-8.87,23.16,23.16,0,0,0-8.62-5.54,32.58,32.58,0,0,0-11.47-1.91,33.26,33.26,0,0,0-11.61,1.91,24.65,24.65,0,0,0-8.77,5.44,23.83,23.83,0,0,0-5.59,8.57,31,31,0,0,0-2,11.32,28.13,28.13,0,0,0,2.06,11,24.11,24.11,0,0,0,5.83,8.43,26.16,26.16,0,0,0,9.06,5.44A34.26,34.26,0,0,0,1433.72,595.23Zm-6.91-40.38a11.26,11.26,0,0,1,13.37.1,10.69,10.69,0,0,1,3.63,6h-20.29A9.74,9.74,0,0,1,1426.81,554.85Z"/><path d="M1081.8,705.38V711h17.84V660.69H1081.8v5a20.46,20.46,0,0,0-15.58-6.57,24.29,24.29,0,0,0-10.19,2.11,24.67,24.67,0,0,0-7.94,5.73,26.41,26.41,0,0,0-5.19,8.48,28.15,28.15,0,0,0-1.87,10.24,29,29,0,0,0,1.92,10.68,25.9,25.9,0,0,0,5.34,8.53,24.07,24.07,0,0,0,8,5.63,25,25,0,0,0,10.1,2Q1076.11,712.53,1081.8,705.38Zm-19.06-11.47a11.69,11.69,0,0,1-3.28-8.23,10.68,10.68,0,0,1,.88-4.36,12.23,12.23,0,0,1,2.4-3.58,10.82,10.82,0,0,1,3.63-2.45,11.61,11.61,0,0,1,4.55-.88,11.37,11.37,0,0,1,4.46.88,10.82,10.82,0,0,1,3.63,2.45,12.53,12.53,0,0,1,2.45,3.68,10.9,10.9,0,0,1,.93,4.46,10.6,10.6,0,0,1-.93,4.41,12.63,12.63,0,0,1-2.45,3.62,10.68,10.68,0,0,1-3.63,2.45,11.37,11.37,0,0,1-4.46.88,11.61,11.61,0,0,1-4.55-.88A10.68,10.68,0,0,1,1062.74,693.91Z"/><path class="cls-4" d="M1233.41,711V629.62h-17.84v36.07a20.47,20.47,0,0,0-15.58-6.57,24.39,24.39,0,0,0-18.23,7.84,25.8,25.8,0,0,0-5.15,8.48,30.07,30.07,0,0,0,.1,20.82,26.23,26.23,0,0,0,5.34,8.53,25,25,0,0,0,8,5.68,24.31,24.31,0,0,0,10.09,2.06q9.71,0,15.39-7.15V711Zm-18.18-20.67a12.84,12.84,0,0,1-2.45,3.62,10.88,10.88,0,0,1-3.63,2.45,11.37,11.37,0,0,1-4.46.88,11.69,11.69,0,0,1-4.56-.88,10.73,10.73,0,0,1-3.62-2.45,11.69,11.69,0,0,1-3.28-8.23,10.24,10.24,0,0,1,.93-4.36,12.79,12.79,0,0,1,2.45-3.58,10.88,10.88,0,0,1,3.62-2.45,11.74,11.74,0,0,1,8.92,0,11,11,0,0,1,3.63,2.45,12.72,12.72,0,0,1,2.45,3.68,10.9,10.9,0,0,1,.93,4.46A10.6,10.6,0,0,1,1215.23,690.29Z"/><polygon points="702.35 802.4 686.67 754.67 671.38 754.67 655.7 802.4 642.96 754.67 622.87 754.67 644.92 828.57 664.52 828.57 679.03 785.74 693.53 828.57 713.13 828.57 735.18 754.67 715.09 754.67 702.35 802.4"/><path d="M775.07,777.21a23.09,23.09,0,0,0-8.73,1.52,19.44,19.44,0,0,0-7.34,5.93V747.23H741.26v81.34H759V801.71c0-3.33.79-5.89,2.4-7.69a8.75,8.75,0,0,1,6.9-2.7,8.35,8.35,0,0,1,5.69,2.06,7.21,7.21,0,0,1,2,3.63,26.4,26.4,0,0,1,.59,6.17v25.39h17.73v-32q0-8.93-4.85-14.16T775.07,777.21Z"/><path d="M845.13,783.29a20.44,20.44,0,0,0-15.58-6.57,24.29,24.29,0,0,0-10.19,2.11,24.67,24.67,0,0,0-7.94,5.73,26.41,26.41,0,0,0-5.19,8.48,28.35,28.35,0,0,0-1.86,10.24A29,29,0,0,0,806.28,814a25.9,25.9,0,0,0,5.34,8.53,24.11,24.11,0,0,0,8,5.63,24.94,24.94,0,0,0,10.09,2q9.71,0,15.38-7.15v5.59H863V778.29H845.13Zm-.34,24.6a12.63,12.63,0,0,1-2.45,3.62,10.73,10.73,0,0,1-3.62,2.45,11.42,11.42,0,0,1-4.46.89,11.62,11.62,0,0,1-4.56-.89,10.78,10.78,0,0,1-3.63-2.45,11.69,11.69,0,0,1-3.28-8.23,10.68,10.68,0,0,1,.88-4.36,12.23,12.23,0,0,1,2.4-3.58,10.92,10.92,0,0,1,3.63-2.45,11.8,11.8,0,0,1,4.56-.88,11.59,11.59,0,0,1,4.46.88,10.88,10.88,0,0,1,3.62,2.45,12.53,12.53,0,0,1,2.45,3.68,10.9,10.9,0,0,1,.93,4.46A10.57,10.57,0,0,1,844.79,807.89Z"/><polygon points="894.82 763.2 877.08 763.2 877.08 778.29 871.2 778.29 871.2 793.09 877.08 793.09 877.08 828.57 894.82 828.57 894.82 793.09 904.91 793.09 904.91 778.29 894.82 778.29 894.82 763.2"/><path d="M983.7,783.29a20.46,20.46,0,0,0-15.58-6.57,24.29,24.29,0,0,0-10.19,2.11,24.67,24.67,0,0,0-7.94,5.73A26.41,26.41,0,0,0,944.8,793a28.35,28.35,0,0,0-1.86,10.24A29,29,0,0,0,944.85,814a25.9,25.9,0,0,0,5.34,8.53,24.07,24.07,0,0,0,8,5.63,25,25,0,0,0,10.1,2q9.7,0,15.38-7.15v5.59h17.84V778.29H983.7Zm-.34,24.6a12.63,12.63,0,0,1-2.45,3.62,10.73,10.73,0,0,1-3.62,2.45,11.45,11.45,0,0,1-4.46.89,11.62,11.62,0,0,1-4.56-.89,10.78,10.78,0,0,1-3.63-2.45,11.69,11.69,0,0,1-3.28-8.23,10.68,10.68,0,0,1,.88-4.36,12.23,12.23,0,0,1,2.4-3.58,10.92,10.92,0,0,1,3.63-2.45,11.8,11.8,0,0,1,4.56-.88,11.63,11.63,0,0,1,4.46.88,10.88,10.88,0,0,1,3.62,2.45,12.53,12.53,0,0,1,2.45,3.68,10.9,10.9,0,0,1,.93,4.46A10.57,10.57,0,0,1,983.36,807.89Z"/><path d="M1047.89,777.21a18.69,18.69,0,0,0-9.6,2.4,20.59,20.59,0,0,0-7,6.91v-8.23h-17.74v50.28h17.74V807q0-7.07,3.09-10.74t9.26-3.67a16.92,16.92,0,0,1,7.64,1.76v-17a10.89,10.89,0,0,0-1.91-.2Z"/><path d="M1105.91,783.88a23.12,23.12,0,0,0-8.63-5.54,32.52,32.52,0,0,0-11.46-1.91,33.32,33.32,0,0,0-11.62,1.91,24.74,24.74,0,0,0-8.77,5.44,23.8,23.8,0,0,0-5.58,8.57,31,31,0,0,0-2,11.32,28,28,0,0,0,2.06,11,24.11,24.11,0,0,0,5.83,8.43,26.07,26.07,0,0,0,9.06,5.44,34.24,34.24,0,0,0,11.66,1.91q20.77,0,26-17.25h-17.15a9.61,9.61,0,0,1-8.72,4.7q-10.78,0-10.78-11.46h37.34v-1.86a35.14,35.14,0,0,0-1.86-11.81A24,24,0,0,0,1105.91,783.88Zm-29.6,12.25a9.78,9.78,0,0,1,3.28-6.08,11.27,11.27,0,0,1,13.38.1,10.69,10.69,0,0,1,3.63,6Z"/><polygon class="cls-4" points="1218.61 805.53 1206.06 778.29 1194.89 778.29 1182.35 804.75 1170.29 778.29 1150.5 778.29 1176.27 828.57 1188.32 828.57 1200.28 801.03 1212.82 828.57 1224.68 828.57 1250.95 778.29 1231.25 778.29 1218.61 805.53"/><path class="cls-4" d="M1300.73,783.88a23.16,23.16,0,0,0-8.62-5.54,32.58,32.58,0,0,0-11.47-1.91,33.26,33.26,0,0,0-11.61,1.91,24.65,24.65,0,0,0-8.77,5.44,23.83,23.83,0,0,0-5.59,8.57,31,31,0,0,0-2,11.32,28.13,28.13,0,0,0,2.06,11,24.11,24.11,0,0,0,5.83,8.43,26.11,26.11,0,0,0,9.07,5.44,34.16,34.16,0,0,0,11.66,1.91q20.78,0,26-17.25h-17.15a9.63,9.63,0,0,1-8.73,4.7q-10.77,0-10.78-11.46H1308v-1.86a35.14,35.14,0,0,0-1.86-11.81A24,24,0,0,0,1300.73,783.88Zm-29.6,12.25a9.79,9.79,0,0,1,3.29-6.08,11.26,11.26,0,0,1,13.37.1,10.69,10.69,0,0,1,3.63,6Z"/><path class="cls-4" d="M1390.2,783.29a20.46,20.46,0,0,0-15.58-6.57,24.29,24.29,0,0,0-10.19,2.11,24.67,24.67,0,0,0-7.94,5.73,26.41,26.41,0,0,0-5.19,8.48,28.35,28.35,0,0,0-1.86,10.24,29,29,0,0,0,1.91,10.68,25.9,25.9,0,0,0,5.34,8.53,24.07,24.07,0,0,0,8,5.63,25,25,0,0,0,10.1,2q9.71,0,15.38-7.15v5.59H1408V778.29H1390.2Zm-.34,24.6a12.63,12.63,0,0,1-2.45,3.62,10.68,10.68,0,0,1-3.63,2.45,11.37,11.37,0,0,1-4.45.89,11.62,11.62,0,0,1-4.56-.89,10.68,10.68,0,0,1-3.63-2.45,11.69,11.69,0,0,1-3.28-8.23,10.68,10.68,0,0,1,.88-4.36,12.23,12.23,0,0,1,2.4-3.58,10.82,10.82,0,0,1,3.63-2.45,11.8,11.8,0,0,1,4.56-.88,11.54,11.54,0,0,1,4.45.88,10.82,10.82,0,0,1,3.63,2.45,12.53,12.53,0,0,1,2.45,3.68,10.9,10.9,0,0,1,.93,4.46A10.57,10.57,0,0,1,1389.86,807.89Z"/><path class="cls-4" d="M1471.69,784.51a24.34,24.34,0,0,0-7.94-5.68,24.62,24.62,0,0,0-10.24-2.11,20.78,20.78,0,0,0-15.68,6.57V747.23h-17.74v81.34h17.74V823q5.68,7.15,15.48,7.15a24.13,24.13,0,0,0,10-2.1,25.46,25.46,0,0,0,8.08-5.74,26,26,0,0,0,5.35-8.52,29.64,29.64,0,0,0,0-20.83A26.26,26.26,0,0,0,1471.69,784.51Zm-12.45,23.38a12.43,12.43,0,0,1-2.45,3.62,10.83,10.83,0,0,1-3.57,2.45,11.1,11.1,0,0,1-4.41.89,10.75,10.75,0,0,1-4.46-.94,12.33,12.33,0,0,1-3.68-2.45,11.2,11.2,0,0,1-2.4-12.44,12.53,12.53,0,0,1,2.45-3.68,11,11,0,0,1,3.58-2.45,11.2,11.2,0,0,1,4.41-.88,10.87,10.87,0,0,1,4.51.93,12.2,12.2,0,0,1,3.62,2.5,11.14,11.14,0,0,1,2.45,3.68,11.36,11.36,0,0,1,.88,4.45A10.36,10.36,0,0,1,1459.24,807.89Z"/><path class="cls-4" d="M1538.62,784a29.78,29.78,0,0,0-9.6-5.58,34.92,34.92,0,0,0-12-2,34.31,34.31,0,0,0-12.1,2.06,29.76,29.76,0,0,0-9.55,5.63,25.85,25.85,0,0,0-6.28,8.43,24.48,24.48,0,0,0-2.25,10.44,27.29,27.29,0,0,0,2.25,11.22,26,26,0,0,0,6.23,8.67,27.51,27.51,0,0,0,9.45,5.59,35.51,35.51,0,0,0,12,2,37.07,37.07,0,0,0,12.2-2,28.25,28.25,0,0,0,9.65-5.54,25.8,25.8,0,0,0,6.32-8.53,25.47,25.47,0,0,0,2.31-10.92,25.94,25.94,0,0,0-2.26-10.93A25.1,25.1,0,0,0,1538.62,784Zm-11.07,23.82a12.48,12.48,0,0,1-2.45,3.67,10.78,10.78,0,0,1-3.63,2.45,11.62,11.62,0,0,1-8.92,0,10.73,10.73,0,0,1-3.62-2.45,12.48,12.48,0,0,1-2.45-3.67,11.44,11.44,0,0,1-.93-4.66,10.6,10.6,0,0,1,.93-4.41,12.63,12.63,0,0,1,2.45-3.62,10.59,10.59,0,0,1,3.62-2.45,11.74,11.74,0,0,1,8.92,0,10.63,10.63,0,0,1,3.63,2.45,12.48,12.48,0,0,1,2.45,3.67,10.94,10.94,0,0,1,.93,4.46A11.2,11.2,0,0,1,1527.55,807.84Z"/><path class="cls-4" d="M1593.16,806.61q0,9.32-9,9.31t-9-9.31V778.29h-17.74V810q0,10.2,6.71,15.29t20,5.1q13.33,0,20-5.1T1610.9,810V778.29h-17.74Z"/><polygon class="cls-4" points="1642.75 778.29 1642.75 763.2 1625.01 763.2 1625.01 778.29 1619.13 778.29 1619.13 793.09 1625.01 793.09 1625.01 828.57 1642.75 828.57 1642.75 793.09 1652.84 793.09 1652.84 778.29 1642.75 778.29"/><path class="cls-4" d="M1163.92,671.86a14,14,0,0,0-2.93-5.68,18.15,18.15,0,0,0-6.42-4.85,21.87,21.87,0,0,0-9.07-1.72,24.2,24.2,0,0,0-7.31,1l0,13.1c.19,0,.38,0,.58,0a10,10,0,0,1,3.13.49,6.73,6.73,0,0,1,2.65,1.67,7.45,7.45,0,0,1,1.91,3.68,27.19,27.19,0,0,1,.54,6V711h17.74V679A29.26,29.26,0,0,0,1163.92,671.86Z"/><path d="M1136.47,661.15a19.38,19.38,0,0,0-7.35,5.93v-6.37h-17.74V711h17.74V684.13q0-5,2.4-7.69a8.51,8.51,0,0,1,6.33-2.67l0-13.1C1137.4,660.82,1136.92,661,1136.47,661.15Z"/><path class="cls-3" d="M1135.75,563.82a12.53,12.53,0,0,0-2.45-3.68,10.82,10.82,0,0,0-3.63-2.45,11.56,11.56,0,0,0-4.46-.88,11.79,11.79,0,0,0-4.55.88,10.82,10.82,0,0,0-3.63,2.45,12.23,12.23,0,0,0-2.4,3.58,10.68,10.68,0,0,0-.88,4.36,11.69,11.69,0,0,0,3.28,8.23,10.68,10.68,0,0,0,3.63,2.45,11.61,11.61,0,0,0,4.55.89,11.38,11.38,0,0,0,4.46-.89,10.68,10.68,0,0,0,3.63-2.45,12.63,12.63,0,0,0,2.45-3.62,10.57,10.57,0,0,0,.93-4.41A10.9,10.9,0,0,0,1135.75,563.82Z"/><rect class="cls-4" x="1138.15" y="543.09" width="15.78" height="50.27"/><path d="M1136.09,543.09v5a20.46,20.46,0,0,0-15.58-6.57,24.29,24.29,0,0,0-10.19,2.11,24.67,24.67,0,0,0-7.94,5.73,26.41,26.41,0,0,0-5.19,8.48,28.35,28.35,0,0,0-1.86,10.24,29,29,0,0,0,1.91,10.68,25.9,25.9,0,0,0,5.34,8.53,24.07,24.07,0,0,0,8,5.63,25,25,0,0,0,10.1,2q9.69,0,15.38-7.15v5.58h2.06V543.09Zm-.34,29.6a12.63,12.63,0,0,1-2.45,3.62,10.68,10.68,0,0,1-3.63,2.45,11.38,11.38,0,0,1-4.46.89,11.61,11.61,0,0,1-4.55-.89,10.68,10.68,0,0,1-3.63-2.45,11.69,11.69,0,0,1-3.28-8.23,10.68,10.68,0,0,1,.88-4.36,12.23,12.23,0,0,1,2.4-3.58,10.82,10.82,0,0,1,3.63-2.45,11.79,11.79,0,0,1,4.55-.88,11.56,11.56,0,0,1,4.46.88,10.82,10.82,0,0,1,3.63,2.45,12.53,12.53,0,0,1,2.45,3.68,10.9,10.9,0,0,1,.93,4.46A10.57,10.57,0,0,1,1135.75,572.69Z"/></g></g></svg>