<svg xmlns="http://www.w3.org/2000/svg" xmlns:xlink="http://www.w3.org/1999/xlink" viewBox="0 0 2000.96 1105.33"><defs><style>.cls-1{fill:#e6e7e8;}.cls-2{fill:url(#linear-gradient);}.cls-3{fill:none;}</style><linearGradient id="linear-gradient" y1="552.66" x2="1024.3" y2="552.66" gradientUnits="userSpaceOnUse"><stop offset="0" stop-color="#2e3192"/><stop offset="0.98" stop-color="#1b75bc"/></linearGradient></defs><title>Asset 21backgroundhome</title><g id="Layer_2" data-name="Layer 2"><g id="Layer_1-2" data-name="Layer 1"><rect class="cls-1" x="1024.3" width="976.66" height="1105.33"/><rect class="cls-2" width="1024.3" height="1105.33"/><path class="cls-3" d="M1100.08,519a12.78,12.78,0,0,0-4.29-2.89,13.45,13.45,0,0,0-5.28-1,13.74,13.74,0,0,0-5.39,1,12.78,12.78,0,0,0-4.29,2.89,14.5,14.5,0,0,0-2.85,4.24,12.79,12.79,0,0,0-1,5.16,13.86,13.86,0,0,0,3.89,9.75,12.78,12.78,0,0,0,4.29,2.89,13.74,13.74,0,0,0,5.39,1.05,13.45,13.45,0,0,0,5.28-1.05,12.78,12.78,0,0,0,4.29-2.89,14.87,14.87,0,0,0,2.9-4.3,12.41,12.41,0,0,0,1.11-5.22,12.81,12.81,0,0,0-1.11-5.27A14.63,14.63,0,0,0,1100.08,519Z"/><path class="cls-3" d="M897.78,518.78a13,13,0,0,0-4.29-2.9,13.9,13.9,0,0,0-10.55,0,12.9,12.9,0,0,0-4.3,2.9,15.07,15.07,0,0,0-2.9,4.3,12.56,12.56,0,0,0-1.1,5.22,13.51,13.51,0,0,0,1.1,5.5,14.83,14.83,0,0,0,2.9,4.36,12.73,12.73,0,0,0,4.3,2.89,13.78,13.78,0,0,0,10.55,0,12.78,12.78,0,0,0,4.29-2.89,14.63,14.63,0,0,0,2.9-4.36,13.1,13.1,0,0,0,1.11-5.39,12.86,12.86,0,0,0-1.11-5.28A14.71,14.71,0,0,0,897.78,518.78Z"/><path class="cls-1" d="M821.52,468.44a45.92,45.92,0,0,0-42.29,27.43,47.23,47.23,0,0,0,.06,37.12,47.61,47.61,0,0,0,10.15,14.73,45.65,45.65,0,0,0,32,13,47.2,47.2,0,0,0,8.93-.86,66.65,66.65,0,0,0,9.74-2.73l2.32-.81V529.46q-8.7,9.27-19.6,9.28a23.06,23.06,0,0,1-9.28-1.86A23.27,23.27,0,0,1,801,524.12a25.24,25.24,0,0,1-1.8-9.63A24.92,24.92,0,0,1,801,505a23.25,23.25,0,0,1,4.93-7.6,23,23,0,0,1,7.48-5,23.8,23.8,0,0,1,9.46-1.86q11.6,0,19.48,9.63V473a63.36,63.36,0,0,0-10.61-3.42A48.26,48.26,0,0,0,821.52,468.44Z"/><path class="cls-1" d="M913.79,505.62A35.13,35.13,0,0,0,902.42,499a43.51,43.51,0,0,0-28.53.05,35.44,35.44,0,0,0-11.31,6.67,30.46,30.46,0,0,0-7.43,10,29,29,0,0,0-2.66,12.35,32.18,32.18,0,0,0,2.66,13.28,30.67,30.67,0,0,0,7.37,10.27,32.54,32.54,0,0,0,11.19,6.61,41.73,41.73,0,0,0,14.16,2.32,43.64,43.64,0,0,0,14.44-2.32,33.46,33.46,0,0,0,11.42-6.55,30.62,30.62,0,0,0,7.48-10.09,30.28,30.28,0,0,0,2.73-12.94,30.84,30.84,0,0,0-2.67-12.93A29.59,29.59,0,0,0,913.79,505.62ZM900.68,533.8a14.63,14.63,0,0,1-2.9,4.36,12.78,12.78,0,0,1-4.29,2.89,13.78,13.78,0,0,1-10.55,0,12.73,12.73,0,0,1-4.3-2.89,14.83,14.83,0,0,1-2.9-4.36,13.51,13.51,0,0,1-1.1-5.5,12.56,12.56,0,0,1,1.1-5.22,15.07,15.07,0,0,1,2.9-4.3,12.9,12.9,0,0,1,4.3-2.9,13.9,13.9,0,0,1,10.55,0,13,13,0,0,1,4.29,2.9,14.71,14.71,0,0,1,2.9,4.35,12.86,12.86,0,0,1,1.11,5.28A13.1,13.1,0,0,1,900.68,533.8Z"/><path class="cls-1" d="M957,526.55q0-5.91,2.84-9.1c1.9-2.13,4.62-3.19,8.18-3.19a11.54,11.54,0,0,1,3.71.58,8,8,0,0,1,3.14,2,8.87,8.87,0,0,1,2.26,4.35,32.73,32.73,0,0,1,.64,7.14v30h21V520.52a35,35,0,0,0-.93-8.47,16.53,16.53,0,0,0-3.48-6.72,21.26,21.26,0,0,0-7.59-5.74,25.71,25.71,0,0,0-10.73-2,27.4,27.4,0,0,0-10.33,1.8q-4.41,1.8-8.7,7v-7.54H936v59.51h21Z"/><polygon class="cls-1" points="1015.46 480.97 1015.46 498.83 1008.5 498.83 1008.5 516.35 1015.46 516.35 1015.46 558.34 1024.3 558.34 1024.3 480.97 1015.46 480.97"/><polygon points="1036.46 516.35 1048.41 516.35 1048.41 498.83 1036.46 498.83 1036.46 480.97 1024.3 480.97 1024.3 558.34 1036.46 558.34 1036.46 516.35"/><path d="M1103.39,504.75A24.24,24.24,0,0,0,1085,497a28.6,28.6,0,0,0-21.47,9.29,31.09,31.09,0,0,0-6.14,10,33.53,33.53,0,0,0-2.21,12.12,34.63,34.63,0,0,0,2.26,12.64,30.78,30.78,0,0,0,6.33,10.1,28.77,28.77,0,0,0,9.51,6.67,29.65,29.65,0,0,0,12,2.38q11.47,0,18.21-8.47v6.61h21.11V498.83h-21.11Zm-.41,29.11a14.87,14.87,0,0,1-2.9,4.3,12.78,12.78,0,0,1-4.29,2.89,13.45,13.45,0,0,1-5.28,1.05,13.74,13.74,0,0,1-5.39-1.05,12.78,12.78,0,0,1-4.29-2.89,13.86,13.86,0,0,1-3.89-9.75,12.79,12.79,0,0,1,1-5.16,14.5,14.5,0,0,1,2.85-4.24,12.78,12.78,0,0,1,4.29-2.89,13.74,13.74,0,0,1,5.39-1,13.45,13.45,0,0,1,5.28,1,12.78,12.78,0,0,1,4.29,2.89,14.63,14.63,0,0,1,2.9,4.36,12.81,12.81,0,0,1,1.11,5.27A12.41,12.41,0,0,1,1103,533.86Z"/><path d="M1156.46,499.35A31.63,31.63,0,0,0,1146,506a31,31,0,0,0-7,10.1,32,32,0,0,0-2.55,12.93,30,30,0,0,0,2.67,12.82,30.89,30.89,0,0,0,7.13,9.86,31.35,31.35,0,0,0,10.32,6.32,34.83,34.83,0,0,0,12.36,2.21,37.18,37.18,0,0,0,14.73-3.37V539a17.4,17.4,0,0,1-11,4.06,15.33,15.33,0,0,1-5.68-1,13.11,13.11,0,0,1-4.59-3,14,14,0,0,1-3-4.52,14.5,14.5,0,0,1-1.1-5.74,14.82,14.82,0,0,1,1.1-5.86,13.52,13.52,0,0,1,3.07-4.52,14,14,0,0,1,4.58-3,15,15,0,0,1,5.63-1,19.4,19.4,0,0,1,11,3.71V500.22a31.27,31.27,0,0,0-14.15-3.25A35.67,35.67,0,0,0,1156.46,499.35Z"/><polygon points="1219.04 498.83 1219.04 480.97 1198.04 480.97 1198.04 498.83 1191.08 498.83 1191.08 516.35 1198.04 516.35 1198.04 558.34 1219.04 558.34 1219.04 516.35 1230.99 516.35 1230.99 498.83 1219.04 498.83"/><path class="cls-1" d="M986.93,657.63q0,3.84-.29,7.83a20.83,20.83,0,0,1-1.8,7.25,12.63,12.63,0,0,1-4.58,5.28c-2,1.36-5,2-8.76,2s-6.73-.67-8.82-2a12.09,12.09,0,0,1-4.58-5.28,21.26,21.26,0,0,1-1.74-7.25q-.29-4-.29-7.83V610.08H933.34v50.69q0,20.41,9.39,29.81T971.5,700q19.37,0,28.71-9.39t9.34-29.81V610.08H986.93Z"/><path d="M1057,659.72q-3.13-.69-5-1.16a10.75,10.75,0,0,1-2.9-1,2.93,2.93,0,0,1-1.27-1.22,4,4,0,0,1-.29-1.68,3.55,3.55,0,0,1,1.8-3.13,8.44,8.44,0,0,1,4.69-1.16,24.53,24.53,0,0,1,11.37,3l7.08-13.68a49.62,49.62,0,0,0-19.14-3.83,37.19,37.19,0,0,0-11,1.51,24.72,24.72,0,0,0-8.41,4.29,18.54,18.54,0,0,0-5.34,6.78,21.1,21.1,0,0,0-1.86,9q0,6.86,3.89,10.73t13.63,5.86c1.93.39,3.5.76,4.7,1.1a10,10,0,0,1,2.72,1.16,3.1,3.1,0,0,1,1.22,1.4,5.44,5.44,0,0,1,.29,1.91,3.81,3.81,0,0,1-1.86,3.25,8.19,8.19,0,0,1-4.75,1.27q-7.89,0-16.7-6l-5.55,10.76v5.24a45.83,45.83,0,0,0,21.67,5.69,40,40,0,0,0,11.48-1.56,27.52,27.52,0,0,0,8.93-4.41,20,20,0,0,0,5.81-7,20.7,20.7,0,0,0,2.08-9.39,15.82,15.82,0,0,0-4.29-11.43Q1065.69,661.46,1057,659.72Z"/><path class="cls-1" d="M1022.19,692.9c.7.41,1.41.78,2.11,1.15v-5.24Z"/></g></g></svg>